# xmcd
#
# Track frame offsets:
#	150
#	7562
#	24497
#	43835
#	61155
#	81127
#	99497
#	118167
#	139095
#	158897
#	176662
#	199475
#	224292
#
# Disc length: 3242 seconds
#
# Revision: 1
# Processed by: cddbd v1.5.1PL0 Copyright (c) Steve Scherf et al.
# Submitted via: CDex 1.50Beta5
#
DISCID=ac0ca80d
DTITLE=Lead - LIFE ON DA BEAT
DYEAR=2003
DGENRE=Pop
TTITLE0=Prelude
TTITLE1=ONE FOR DA SOUL
TTITLE2=Step by Step〜traditional groovin’ mix〜
TTITLE3=真夏のMagic
TTITLE4=LOVE RAIN
TTITLE5=“Show me the way”
TTITLE6=導線
TTITLE7=Be Happy
TTITLE8=SHAKE UP
TTITLE9=永遠の一秒
TTITLE10=FLY AWAY
TTITLE11=Only You Can Hurt Me
TTITLE12=I want ya
EXTD=
EXTT0=
EXTT1=
EXTT2=
EXTT3=
EXTT4=
EXTT5=
EXTT6=
EXTT7=
EXTT8=
EXTT9=
EXTT10=
EXTT11=
EXTT12=
PLAYORDER=
